<svg width="5056" height="5025" viewBox="0 0 5056 5025" fill="none" xmlns="http://www.w3.org/2000/svg">
<path d="M1017.31 500.326C1252.82 180.24 1800.93 768.104 2184.82 665.436C2498.95 581.428 2559.28 4.66726 2884.42 0.995074C3203.38 -2.60737 3314.57 463.584 3573.6 649.751C3783.37 800.522 4042.76 850.949 4260.48 990.011C4528.97 1161.51 4885.84 1273.2 5009.39 1566.85C5130.32 1854.27 4985.93 2187.82 4889.19 2484.26C4800.8 2755.14 4553.59 2946.18 4470.38 3218.69C4356.02 3593.18 4656.98 4182.09 4313.39 4369.89C3946.79 4570.25 3551.13 3820.84 3150.7 3939.97C2679.99 4080.01 2638.05 4891.15 2161.56 5010.06C1774.7 5106.6 1433.89 4694.01 1121.36 4446.41C811.541 4200.96 526.617 3919.16 342.866 3569.21C160.142 3221.21 -130.503 2776.76 65.9024 2436.29C323.042 1990.53 1185.13 2177.5 1412.1 1715.66C1602.05 1329.15 762.086 847.209 1017.31 500.326Z" fill="#252525"/>
</svg>
