<?xml version="1.0" standalone="no"?>
<!DOCTYPE svg PUBLIC "-//W3C//DTD SVG 20010904//EN"
 "http://www.w3.org/TR/2001/REC-SVG-20010904/DTD/svg10.dtd">
<svg version="1.0" xmlns="http://www.w3.org/2000/svg"
 width="256.000000pt" height="256.000000pt" viewBox="0 0 256.000000 256.000000"
 preserveAspectRatio="xMidYMid meet">
<metadata>
Created by potrace 1.14, written by Peter Selinger 2001-2017
</metadata>
<g transform="translate(0.000000,256.000000) scale(0.100000,-0.100000)"
fill="#000000" stroke="none">
<path d="M745 2275 c-121 -80 -264 -173 -318 -207 -99 -64 -102 -68 -111 -143
-3 -22 -7 -56 -10 -75 -3 -19 -13 -89 -21 -155 -9 -66 -18 -131 -20 -145 -2
-14 -7 -47 -10 -75 -4 -27 -8 -61 -10 -75 -2 -14 -7 -52 -11 -85 -5 -33 -9
-62 -9 -65 -1 -3 -5 -32 -9 -65 -5 -33 -10 -71 -12 -85 -9 -65 -12 -89 -19
-145 -4 -32 -9 -68 -11 -78 -2 -11 -6 -45 -10 -76 -3 -31 -8 -65 -10 -76 -2
-11 -6 -42 -10 -70 -3 -27 -9 -67 -14 -88 -10 -45 -3 -50 100 -72 8 -2 78 -20
155 -40 77 -20 147 -38 155 -40 8 -2 49 -12 90 -23 72 -20 471 -122 494 -127
6 -1 18 -5 26 -8 8 -3 40 -11 70 -17 30 -7 84 -21 119 -31 35 -11 77 -22 94
-25 17 -2 33 -7 37 -9 3 -2 19 -6 34 -9 15 -3 43 -10 61 -16 25 -8 38 -8 47 0
7 6 114 76 238 156 124 81 261 170 306 200 l81 53 18 128 c9 70 21 160 26 198
13 102 19 145 25 190 3 22 7 51 9 65 2 14 6 45 10 70 11 77 13 93 20 149 4 30
8 61 10 70 1 9 6 41 9 72 4 31 8 65 10 75 5 27 18 121 21 158 4 41 27 197 40
277 5 25 1 27 -78 47 -45 12 -93 24 -107 27 -14 3 -101 25 -195 50 -93 25
-282 74 -420 109 -137 36 -339 88 -447 116 -109 28 -203 52 -210 55 -7 2 -112
-61 -233 -140z"/>
</g>
</svg>
